<svg width="360" height="57" viewBox="0 0 360 57" fill="none" xmlns="http://www.w3.org/2000/svg">
<g filter="url(#filter0_d_23_3645)">
<rect x="-1" y="12" width="360" height="46" fill="#41197F"/>
</g>
<path d="M47.1771 37.9978V45.6123H42.6653H42.5627V45.7148V47.7657V47.8682H42.6653H53.9449H54.0474V47.7657V45.7148V45.6123H53.9449H49.433V37.9978L60.6859 25.6733L60.7127 25.6439V25.6041V22.6428V22.5403H60.6102H36H35.8975V22.6428V25.6041V25.6439L35.9243 25.6733L47.1771 37.9978ZM38.1783 24.7962H58.4318L55.3422 28.1801H41.268L38.1783 24.7962ZM43.3277 30.436H53.2824L48.3202 35.8708H48.2899L43.3277 30.436Z" fill="#FCC436" stroke="#FCC436" stroke-width="0.205085"/>
<path d="M48.305 39.0496L41.2007 29.8208L55.4094 29.8208L48.305 39.0496Z" fill="#FCC436"/>
<path d="M322.334 27.906C322.334 24.0472 319.009 20.01 319.009 21.2208C319.009 22.4317 319.624 38.513 319.624 38.513L319.009 49.0291C319.009 49.7463 319.591 50.3276 320.308 50.3276C321.025 50.3276 321.607 49.7463 321.607 49.0291L321.263 38.4526C321.263 38.4526 322.334 31.7648 322.334 27.906Z" stroke="#FCC436" stroke-width="0.820339" stroke-miterlimit="10"/>
<mask id="path-5-inside-1_23_3645" fill="white">
<path d="M322.334 27.906C322.334 24.0472 319.009 20.01 319.009 21.2208C319.009 22.4317 319.624 38.513 319.624 38.513L319.009 49.0291C319.009 49.7463 319.591 50.3276 320.308 50.3276C321.025 50.3276 321.607 49.7463 321.607 49.0291L321.263 38.4526C321.263 38.4526 322.334 31.7648 322.334 27.906Z"/>
</mask>
<path d="M319.624 38.513L323.719 38.7524L323.731 38.5544L323.723 38.3562L319.624 38.513ZM319.009 49.0291L314.915 48.7896L314.908 48.9092V49.0291H319.009ZM321.607 49.0291H325.708V48.9625L325.706 48.896L321.607 49.0291ZM321.263 38.4526L317.213 37.8041L317.151 38.1925L317.164 38.5857L321.263 38.4526ZM326.436 27.906C326.436 24.9299 325.21 22.1983 324.158 20.5006C323.64 19.6659 322.967 18.7603 322.206 18.1043C322 17.9269 321.7 17.6907 321.318 17.4774C321.002 17.3006 320.257 16.9243 319.245 16.9015C317.961 16.8726 316.538 17.4417 315.649 18.7561C314.957 19.7802 314.908 20.8033 314.908 21.2208H323.111C323.111 21.4871 323.088 22.3998 322.444 23.3519C321.604 24.5943 320.253 25.1297 319.06 25.1028C318.138 25.0821 317.504 24.7435 317.314 24.6375C317.06 24.495 316.902 24.3627 316.852 24.3195C316.714 24.2005 316.872 24.3184 317.186 24.824C317.795 25.8069 318.232 27.0233 318.232 27.906H326.436ZM314.908 21.2208C314.908 21.9261 315.067 26.3747 315.218 30.472C315.295 32.5596 315.372 34.6089 315.429 36.1362C315.458 36.8998 315.482 37.5331 315.499 37.9755C315.508 38.1967 315.514 38.3702 315.519 38.4884C315.521 38.5475 315.523 38.5928 315.524 38.6234C315.524 38.6386 315.525 38.6502 315.525 38.658C315.525 38.6618 315.525 38.6648 315.526 38.6667C315.526 38.6677 315.526 38.6685 315.526 38.669C315.526 38.6692 315.526 38.6694 315.526 38.6695C315.526 38.6696 315.526 38.6697 319.624 38.513C323.723 38.3562 323.723 38.3562 323.723 38.3561C323.723 38.356 323.723 38.3558 323.723 38.3555C323.723 38.3551 323.723 38.3543 323.723 38.3534C323.723 38.3514 323.723 38.3485 323.723 38.3447C323.722 38.337 323.722 38.3255 323.721 38.3103C323.72 38.2799 323.718 38.2347 323.716 38.1757C323.712 38.0578 323.705 37.8846 323.697 37.6637C323.68 37.222 323.656 36.5894 323.627 35.8266C323.569 34.3008 323.493 32.2541 323.416 30.1699C323.339 28.0851 323.262 25.9655 323.205 24.2927C323.176 23.4559 323.152 22.7348 323.136 22.1874C323.127 21.9134 323.121 21.6874 323.117 21.5144C323.115 21.4278 323.113 21.3582 323.112 21.3046C323.112 21.278 323.111 21.2573 323.111 21.2419C323.111 21.2257 323.111 21.2195 323.111 21.2208H314.908ZM315.53 38.2735L314.915 48.7896L323.104 49.2685L323.719 38.7524L315.53 38.2735ZM314.908 49.0291C314.908 52.0116 317.325 54.4293 320.308 54.4293V46.226C321.856 46.226 323.111 47.481 323.111 49.0291H314.908ZM320.308 54.4293C323.29 54.4293 325.708 52.0116 325.708 49.0291H317.505C317.505 47.481 318.76 46.226 320.308 46.226V54.4293ZM325.706 48.896L325.363 38.3195L317.164 38.5857L317.507 49.1622L325.706 48.896ZM321.263 38.4526C325.313 39.1011 325.313 39.1009 325.313 39.1007C325.313 39.1006 325.313 39.1003 325.313 39.1001C325.313 39.0996 325.314 39.0991 325.314 39.0985C325.314 39.0972 325.314 39.0955 325.314 39.0934C325.315 39.0892 325.316 39.0834 325.317 39.076C325.32 39.0612 325.323 39.0402 325.327 39.0131C325.336 38.959 325.348 38.8809 325.363 38.7811C325.394 38.5816 325.437 38.2951 325.489 37.9402C325.593 37.2315 325.731 36.2451 325.869 35.1322C326.138 32.9644 326.436 30.1098 326.436 27.906H318.232C318.232 29.5609 317.994 31.9797 317.728 34.1205C317.599 35.1619 317.469 36.0886 317.372 36.7545C317.323 37.0869 317.283 37.3529 317.255 37.5342C317.241 37.6249 317.23 37.6942 317.223 37.74C317.22 37.7628 317.217 37.7798 317.215 37.7906C317.214 37.796 317.214 37.7998 317.213 37.8021C317.213 37.8032 317.213 37.804 317.213 37.8043C317.213 37.8045 317.213 37.8045 317.213 37.8045C317.213 37.8045 317.213 37.8044 317.213 37.8044C317.213 37.8042 317.213 37.8041 321.263 38.4526Z" fill="#FCC436" mask="url(#path-5-inside-1_23_3645)"/>
<path d="M286.818 21.7012C286.818 21.7012 286.891 24.401 286.891 26.9642C286.891 28.8867 286.307 30.094 285.475 30.5775L285.493 49.0291C285.493 49.7463 284.912 50.3277 284.195 50.3277C283.478 50.3277 282.896 49.7463 282.896 49.0291L283.423 30.5814C282.587 30.1004 282 28.8917 282 26.9642C282 24.401 282.072 21.7012 282.072 21.7012" stroke="#FCC436" stroke-width="1.29858" stroke-miterlimit="10" stroke-linecap="round" stroke-linejoin="round"/>
<path d="M284.445 21.7012V27.9246" stroke="#FCC436" stroke-width="1.29858" stroke-miterlimit="10" stroke-linecap="round" stroke-linejoin="round"/>
<path d="M302.777 48.5602C309.934 48.5602 315.736 42.7584 315.736 35.6015C315.736 28.4446 309.934 22.6428 302.777 22.6428C295.62 22.6428 289.818 28.4446 289.818 35.6015C289.818 42.7584 295.62 48.5602 302.777 48.5602Z" stroke="#FCC436" stroke-width="2.46102" stroke-miterlimit="10" stroke-linecap="round" stroke-linejoin="round"/>
<path d="M302.78 43.5171C307.137 43.5171 310.668 39.9853 310.668 35.6286C310.668 31.2719 307.137 27.7401 302.78 27.7401C298.423 27.7401 294.891 31.2719 294.891 35.6286C294.891 39.9853 298.423 43.5171 302.78 43.5171Z" fill="#FCC436"/>
<path d="M282 27.5648H286.922L286.102 30.8462L285.725 48.9281C285.706 49.8206 284.978 50.5343 284.085 50.5343C283.166 50.5343 282.426 49.7789 282.445 48.8598L282.82 30.8462L282 27.5648Z" fill="#FCC436"/>
<defs>
<filter id="filter0_d_23_3645" x="-11" y="0" width="380" height="66" filterUnits="userSpaceOnUse" color-interpolation-filters="sRGB">
<feFlood flood-opacity="0" result="BackgroundImageFix"/>
<feColorMatrix in="SourceAlpha" type="matrix" values="0 0 0 0 0 0 0 0 0 0 0 0 0 0 0 0 0 0 127 0" result="hardAlpha"/>
<feOffset dy="-2"/>
<feGaussianBlur stdDeviation="5"/>
<feComposite in2="hardAlpha" operator="out"/>
<feColorMatrix type="matrix" values="0 0 0 0 0 0 0 0 0 0 0 0 0 0 0 0 0 0 0.25 0"/>
<feBlend mode="normal" in2="BackgroundImageFix" result="effect1_dropShadow_23_3645"/>
<feBlend mode="normal" in="SourceGraphic" in2="effect1_dropShadow_23_3645" result="shape"/>
</filter>
</defs>
</svg>
